# xmcd
#
# Track frame offsets: 
#        150
#        15716
#        25371
#        40878
#        58295
#        75364
#        97253
#        113509
#        133007
#        151375
#        176893
#
# Disc length: 2687 seconds
#
# Revision: 0
# Processed by: cddbd v1.5.2PL0 Copyright (c) Steve Scherf et al.
# Submitted via: ExactAudioCopy v1.3
#
DISCID=8e0a7d0b
DTITLE=Omar Coleman - Omar Coleman and Westside Soul
DYEAR=2016
DGENRE=Blues
TTITLE0=Sweet Little Woman
TTITLE1=Let's Go Get Stoned
TTITLE2=Let The Babies Live
TTITLE3=Jody's Got Your Girl And Gone
TTITLE4=I Let A Good Girl Go
TTITLE5=Rotten Old Lady
TTITLE6=Good Provider
TTITLE7=Somebody's There When I'm Not Home
TTITLE8=Give Me The Green Light
TTITLE9=Going Down
TTITLE10=Whisper To A Moan
EXTD=
EXTT0=
EXTT1=
EXTT2=
EXTT3=
EXTT4=
EXTT5=
EXTT6=
EXTT7=
EXTT8=
EXTT9=
EXTT10=
PLAYORDER=
